Coordinates
version=1
nRows=5
nColumns=40
inDegrees=yes

Units are S.I. units (second, meters, Newtons, ...)
Angles are in degrees.

endheader
time	pelvis_tilt	pelvis_list	pelvis_rotation	pelvis_tx	pelvis_ty	pelvis_tz	hip_flexion_r	hip_adduction_r	hip_rotation_r	knee_angle_r	knee_angle_r_beta	ankle_angle_r	subtalar_angle_r	mtp_angle_r	hip_flexion_l	hip_adduction_l	hip_rotation_l	knee_angle_l	knee_angle_l_beta	ankle_angle_l	subtalar_angle_l	mtp_angle_l	lumbar_extension	lumbar_bending	lumbar_rotation	arm_flex_r	arm_add_r	arm_rot_r	elbow_flex_r	pro_sup_r	wrist_flex_r	wrist_dev_r	arm_flex_l	arm_add_l	arm_rot_l	elbow_flex_l	pro_sup_l	wrist_flex_l	wrist_dev_l
     36.18228571	     -6.92343252	     -7.01869628	     -3.73824628	      1.07996374	      0.93138797	      0.41580262	     39.30472006	     -3.78436738	     -7.57896778	     41.18869150	     41.18869150	      3.94848308	    -13.07013577	      2.34376551	     14.70117894	     -7.34810580	     -8.32089225	     21.61562405	     21.61562405	     15.30395965	     -9.59589375	     -1.30782849	    -13.13919118	      5.39132741	      1.87173314	     -1.48081935	    -14.69575489	     -5.29475824	     24.36155484	     47.27946858	      0.00000000	      0.00000000	     18.38982780	    -17.47992962	     -1.38508776	     53.05290441	     46.61230315	      0.00000000	      0.00000000
     36.19457143	     -7.01886285	     -7.11017076	     -3.96120688	      1.07828319	      0.93108526	      0.41645694	     39.28219171	     -3.46850440	     -8.22967199	     38.20402517	     38.20402517	      3.59076351	    -11.29027850	      2.44540913	     14.23202494	     -7.47158208	     -8.42083109	     21.41454926	     21.41454926	     15.59846109	     -9.62124112	     -1.35462610	    -13.24096641	      5.48714449	      2.49812668	     -2.65567073	    -14.99488481	     -5.49755324	     23.51929021	     47.31770927	      0.00000000	      0.00000000	     19.35517458	    -17.30564356	     -1.69031439	     54.96669774	     46.67533933	      0.00000000	      0.00000000
     36.20685714	     -7.17632878	     -6.93149031	     -4.22861179	      1.07672921	      0.93051781	      0.41725211	     39.31665207	     -3.34143124	     -8.73850255	     35.32412278	     35.32412278	      2.99507693	     -9.47220672	      1.79082019	     13.82266787	     -7.34826635	     -8.78773014	     21.21001979	     21.21001979	     15.88130865	     -9.47784502	     -1.44828731	    -13.29189142	      5.22158662	      2.51079110	     -3.42361265	    -15.01358019	     -6.53844750	     22.99174581	     47.40130378	      0.00000000	      0.00000000	     19.17161730	    -17.80306239	     -2.51943426	     59.19087587	     46.81927304	      0.00000000	      0.00000000
     36.21914286	     -7.42873123	     -6.76919831	     -4.45807098	      1.07516502	      0.92990558	      0.41827857	     39.38493045	     -3.05720268	     -9.01300157	     32.50181819	     32.50181819	      2.43080247	     -8.03001290	      2.26947808	     13.50887008	     -7.23765792	     -9.02281040	     20.97573545	     20.97573545	     16.09964151	     -9.44507015	     -1.51922885	    -13.10826098	      5.00556901	      2.52408319	     -4.12553918	    -15.01680788	     -6.62529078	     22.71558332	     47.41059375	      0.00000000	      0.00000000	     19.99748222	    -18.17328814	     -2.81900894	     60.15303796	     46.86569507	      0.00000000	      0.00000000
     36.23142857	     -7.36538152	     -6.64322397	     -4.61468487	      1.07423515	      0.92971122	      0.41916412	     38.91868691	     -2.96306118	     -9.90968853	     29.77268716	     29.77268716	      2.20519556	     -5.40903319	      2.48308093	     12.68236107	     -7.12839341	     -9.35494989	     20.49655620	     20.49655620	     16.38865937	     -9.06417325	     -1.71563407	    -13.34357193	      4.79273558	      2.94871861	     -5.30217985	    -15.16111318	     -7.06674178	     22.76069267	     47.42019797	      0.00000000	      0.00000000	     20.25280426	    -18.05465470	     -3.49364483	     63.50052613	     46.98064734	      0.00000000	      0.00000000
